<svg width="24" height="24" viewBox="0 0 24 24" fill="none" xmlns="http://www.w3.org/2000/svg">
<path d="M12 14C13.66 14 15 12.66 15 11V5C15 3.34 13.66 2 12 2C10.34 2 9 3.34 9 5V11C9 12.66 10.34 14 12 14Z" fill="currentColor"/>
<path d="M17 11C17 14.53 14.39 17.44 11 17.93V21H13C13.55 21 14 21.45 14 22C14 22.55 13.55 23 13 23H11C10.45 23 10 22.55 10 22C10 21.45 10.45 21 11 21H13V17.93C9.61 17.44 7 14.53 7 11H5C4.45 11 4 10.55 4 10C4 9.45 4.45 9 5 9H7C7.55 9 8 9.45 8 10C8 12.76 10.24 15 13 15C15.76 15 18 12.76 18 10C18 9.45 18.45 9 19 9C19.55 9 20 9.45 20 10C20 10.55 19.55 11 19 11H17Z" fill="currentColor"/>
</svg>